<?xml version="1.0" standalone="no"?><!DOCTYPE svg PUBLIC "-//W3C//DTD SVG 1.1//EN" "http://www.w3.org/Graphics/SVG/1.1/DTD/svg11.dtd"><svg t="1592192660925" class="icon" viewBox="0 0 1024 1024" version="1.1" xmlns="http://www.w3.org/2000/svg" p-id="995" xmlns:xlink="http://www.w3.org/1999/xlink" width="128" height="128"><defs><style type="text/css"></style></defs><path d="M235.965217 639.35072434c8.904348 0 17.808696 4.452174 26.71304401 8.904348L538.71304301 924.28985534 814.74782599 648.25507234c13.356522-13.356522 35.617391-8.904348 48.97391301 4.452174 13.356522 13.356522 13.356522 31.165217 0 44.521739L560.97391299 999.97681134c-13.356522 13.356522-35.617391 13.35652199-48.97391299-1e-8l-302.74782599-302.74782599c-13.356522-13.356522-13.35652199-35.617391 0-48.973913 8.904348-4.452174 17.808696-8.904348 26.71304299-8.904348z" fill="" p-id="996"></path><path d="M663.373913 621.54202934c0-66.782609-53.426087-124.66087001-124.66086999-124.66087-66.782609 0-124.66087001 53.426087-124.66086901 124.66087 0 66.782609 53.426087 124.66087001 124.66086901 124.660869 66.782609 0 124.66087-57.878261 124.66086999-124.660869z" fill="#666666" p-id="997"></path><path d="M627.756522 336.60289834c0-48.97391299-40.069565-89.04347799-89.04347899-89.043478s-89.04347799 40.069565-89.04347801 89.043478 40.069565 89.04347799 89.04347801 89.043478 89.04347799-40.069565 89.04347899-89.043478z" fill="#999999" p-id="998"></path><path d="M592.13913001 87.28115934c0-31.165217-22.26087-53.426087-53.426087-53.426087s-53.426087 22.26087-53.42608602 53.426087 22.26087 53.426087 53.42608602 53.426087c26.713043 0 53.426087-22.26087 53.426087-53.426087z" fill="#DDDDDD" p-id="999"></path></svg>