<?xml version="1.0" standalone="no"?><!DOCTYPE svg PUBLIC "-//W3C//DTD SVG 1.1//EN" "http://www.w3.org/Graphics/SVG/1.1/DTD/svg11.dtd"><svg t="1592192635580" class="icon" viewBox="0 0 1024 1024" version="1.1" xmlns="http://www.w3.org/2000/svg" p-id="740" xmlns:xlink="http://www.w3.org/1999/xlink" width="128" height="128"><defs><style type="text/css"></style></defs><path d="M788.034783 379.31594233c-8.904348 0-17.808696-4.452174-26.713044-8.904348L485.286957 94.37681133 209.252174 370.41159433c-13.356522 13.356522-35.617391 8.904348-48.973913-4.452174-13.356522-13.356522-13.356522-31.165217 0-44.521739L463.026087 18.68985533c13.356522-13.356522 35.617391-13.356522 48.973913 0l302.747826 302.747826c13.356522 13.356522 13.356522 35.617391 0 48.973913-8.904348 4.452174-17.808696 8.904348-26.713043 8.904348z" fill="" p-id="741"></path><path d="M360.626087 397.12463733c0 66.782609 53.426087 124.66087 124.66087 124.66087 66.782609 0 124.66087-53.426087 124.660869-124.66087 0-66.782609-53.426087-124.66087-124.660869-124.660869-66.782609 0-124.66087 57.878261-124.66087 124.660869z" fill="#666666" p-id="742"></path><path d="M396.243478 682.06376833c0 48.973913 40.069565 89.043478 89.043479 89.043478s89.043478-40.069565 89.043478-89.043478-40.069565-89.043478-89.043478-89.043478-89.043478 40.069565-89.043479 89.043478z" fill="#999999" p-id="743"></path><path d="M431.86087 931.38550733c0 31.165217 22.26087 53.426087 53.426087 53.426087s53.426087-22.26087 53.426086-53.426087-22.26087-53.426087-53.426086-53.426087c-26.713043 0-53.426087 22.26087-53.426087 53.426087z" fill="#DDDDDD" p-id="744"></path></svg>