<?xml version="1.0" standalone="no"?><!DOCTYPE svg PUBLIC "-//W3C//DTD SVG 1.1//EN" "http://www.w3.org/Graphics/SVG/1.1/DTD/svg11.dtd"><svg t="1592202423465" class="icon" viewBox="0 0 1024 1024" version="1.1" xmlns="http://www.w3.org/2000/svg" p-id="2219" xmlns:xlink="http://www.w3.org/1999/xlink" width="128" height="128"><defs><style type="text/css"></style></defs><path d="M527.36 133.12m-133.12 0a133.12 133.12 0 1 0 266.24 0 133.12 133.12 0 1 0-266.24 0Z" fill="#999999" p-id="2220"></path><path d="M250.88 245.76m-122.88 0a122.88 122.88 0 1 0 245.76 0 122.88 122.88 0 1 0-245.76 0Z" fill="#999999" p-id="2221"></path><path d="M128 542.72m-102.4 0a102.4 102.4 0 1 0 204.8 0 102.4 102.4 0 1 0-204.8 0Z" fill="#999999" p-id="2222"></path><path d="M250.88 829.44m-92.16 0a92.16 92.16 0 1 0 184.32 0 92.16 92.16 0 1 0-184.32 0Z" fill="#999999" p-id="2223"></path><path d="M529.92 944.64m-79.36 0a79.36 79.36 0 1 0 158.72 0 79.36 79.36 0 1 0-158.72 0Z" fill="#999999" p-id="2224"></path><path d="M821.76 826.88m-64 0a64 64 0 1 0 128 0 64 64 0 1 0-128 0Z" fill="#999999" p-id="2225"></path><path d="M939.52 545.28m-53.76 0a53.76 53.76 0 1 0 107.52 0 53.76 53.76 0 1 0-107.52 0Z" fill="#999999" p-id="2226"></path><path d="M814.08 250.88m-40.96 0a40.96 40.96 0 1 0 81.92 0 40.96 40.96 0 1 0-81.92 0Z" fill="#999999" p-id="2227"></path></svg>